<?xml version="1.0" encoding="utf-8"?>
<!-- Generator: Adobe Illustrator 22.1.0, SVG Export Plug-In . SVG Version: 6.00 Build 0)  -->
<svg version="1.1" id="Layer_1" focusable="false" xmlns="http://www.w3.org/2000/svg" xmlns:xlink="http://www.w3.org/1999/xlink"
	 x="0px" y="0px" viewBox="0 0 576 512" style="enable-background:new 0 0 576 512;" xml:space="preserve">
<style type="text/css">
	.st0{fill:url(#SVGID_1_);}
	.st1{fill:#4E5A65;}
	.st2{opacity:0.4;enable-background:new    ;}
</style>
<g>
	
		<radialGradient id="SVGID_1_" cx="281" cy="643" r="225" gradientTransform="matrix(1 0 0 -1 0 894)" gradientUnits="userSpaceOnUse">
		<stop  offset="0" style="stop-color:#FFFFFF"/>
		<stop  offset="0.4628" style="stop-color:#FDFDFD"/>
		<stop  offset="0.6295" style="stop-color:#F6F6F6"/>
		<stop  offset="0.7483" style="stop-color:#EBEBEB"/>
		<stop  offset="0.8444" style="stop-color:#DADADA"/>
		<stop  offset="0.9257" style="stop-color:#C4C4C4"/>
		<stop  offset="0.9973" style="stop-color:#A9A9A9"/>
		<stop  offset="1" style="stop-color:#A8A8A8"/>
	</radialGradient>
	<circle class="st0" cx="281" cy="251" r="225"/>
	<path class="st1" d="M281,483c-62,0-120.2-24.1-164-68S49,313,49,251s24.1-120.2,68-164s102-68,164-68s120.2,24.1,164,68
		s68,102.1,68,164c0,62-24.1,120.2-68,164S343,483,281,483z M281,33c-58.2,0-113,22.7-154.1,63.9S63,192.8,63,251
		s22.7,113,63.9,154.1S222.8,469,281,469s113-22.7,154.1-63.9S499,309.2,499,251s-22.7-113-63.9-154.1S339.2,33,281,33z"/>
</g>
<g>
	<path class="st2" d="M239.3,328.9h-13.9V308h13.9V328.9z M225.4,169.1V190h13.9v-20.8H225.4z M267.1,238.6v20.8H281v-20.8H267.1z
		 M225.4,238.6v20.8h13.9v-20.8H225.4z M267.1,328.9h69.4V308h-69.4V328.9z M308.8,259.4h55.6v-20.8h-55.6V259.4z M392.1,137.9
		c-7.7,0-13.9,6.2-13.9,13.9v201.4c0,3.8,3.1,6.9,6.9,6.9h13.9c3.8,0,6.9-3.1,6.9-6.9V151.8C406,144.1,399.8,137.9,392.1,137.9z
		 M336.6,169.1h-69.4V190h69.4V169.1z M169.9,137.9c-7.7,0-13.9,6.2-13.9,13.9v201.4c0,3.8,3.1,6.9,6.9,6.9h13.9
		c3.8,0,6.9-3.1,6.9-6.9V151.8C183.8,144.1,177.6,137.9,169.9,137.9z"/>
	<path d="M218.5,151.8h-13.9c-3.8,0-6.9,3.1-6.9,6.9v41.7c0,3.8,3.1,6.9,6.9,6.9h13.9c3.8,0,6.9-3.1,6.9-6.9v-41.7
		C225.4,154.9,222.3,151.8,218.5,151.8z M260.2,151.8h-13.9c-3.8,0-6.9,3.1-6.9,6.9v41.7c0,3.8,3.1,6.9,6.9,6.9h13.9
		c3.8,0,6.9-3.1,6.9-6.9v-41.7C267.1,154.9,264,151.8,260.2,151.8z M218.5,221.2h-13.9c-3.8,0-6.9,3.1-6.9,6.9v41.7
		c0,3.8,3.1,6.9,6.9,6.9h13.9c3.8,0,6.9-3.1,6.9-6.9v-41.7C225.4,224.3,222.3,221.2,218.5,221.2z M301.8,221.2h-13.9
		c-3.8,0-6.9,3.1-6.9,6.9v41.7c0,3.8,3.1,6.9,6.9,6.9h13.9c3.8,0,6.9-3.1,6.9-6.9v-41.7C308.8,224.3,305.7,221.2,301.8,221.2z
		 M260.2,221.2h-13.9c-3.8,0-6.9,3.1-6.9,6.9v41.7c0,3.8,3.1,6.9,6.9,6.9h13.9c3.8,0,6.9-3.1,6.9-6.9v-41.7
		C267.1,224.3,264,221.2,260.2,221.2z M357.4,151.8h-13.9c-3.8,0-6.9,3.1-6.9,6.9v41.7c0,3.8,3.1,6.9,6.9,6.9h13.9
		c3.8,0,6.9-3.1,6.9-6.9v-41.7C364.3,154.9,361.2,151.8,357.4,151.8z M218.5,290.7h-13.9c-3.8,0-6.9,3.1-6.9,6.9v41.7
		c0,3.8,3.1,6.9,6.9,6.9h13.9c3.8,0,6.9-3.1,6.9-6.9v-41.7C225.4,293.8,222.3,290.7,218.5,290.7z M260.2,290.7h-13.9
		c-3.8,0-6.9,3.1-6.9,6.9v41.7c0,3.8,3.1,6.9,6.9,6.9h13.9c3.8,0,6.9-3.1,6.9-6.9v-41.7C267.1,293.8,264,290.7,260.2,290.7z
		 M357.4,290.7h-13.9c-3.8,0-6.9,3.1-6.9,6.9v41.7c0,3.8,3.1,6.9,6.9,6.9h13.9c3.8,0,6.9-3.1,6.9-6.9v-41.7
		C364.3,293.8,361.2,290.7,357.4,290.7z"/>
</g>
</svg>
